<svg width="16" height="16" viewBox="0 0 16 16" fill="none" xmlns="http://www.w3.org/2000/svg">
<g id="users">
<path id="Vector" d="M10.6673 14V12.6667C10.6673 11.9594 10.3864 11.2811 9.88627 10.781C9.38617 10.281 8.70789 10 8.00065 10H4.00065C3.29341 10 2.61513 10.281 2.11503 10.781C1.61494 11.2811 1.33398 11.9594 1.33398 12.6667V14M14.6673 14V12.6667C14.6669 12.0758 14.4702 11.5018 14.1082 11.0349C13.7462 10.5679 13.2394 10.2344 12.6673 10.0867M10.6673 2.08667C11.2409 2.23353 11.7493 2.56713 12.1124 3.03487C12.4755 3.50261 12.6725 4.07789 12.6725 4.67C12.6725 5.26211 12.4755 5.83739 12.1124 6.30513C11.7493 6.77287 11.2409 7.10647 10.6673 7.25333M8.66732 4.66667C8.66732 6.13943 7.47341 7.33333 6.00065 7.33333C4.52789 7.33333 3.33398 6.13943 3.33398 4.66667C3.33398 3.19391 4.52789 2 6.00065 2C7.47341 2 8.66732 3.19391 8.66732 4.66667Z" stroke="#18181B" stroke-linecap="round" stroke-linejoin="round"/>
</g>
</svg>
